<svg width="1043" height="1043" viewBox="0 0 1043 1043" fill="none" xmlns="http://www.w3.org/2000/svg">
<g clip-path="url(#clip0_371_9)">
<path d="M-3 740V367.5H93.5L152.5 528.5C160 550 166 573.5 173 596H175.5C183 573.5 189 550 196 528.5L253 367.5H350V740H268.5V612.5C268.5 575.5 275.5 520 280.5 483.5H278L247 572.5L197 708.5H148L97.5 572.5L67.5 483.5H65.5C70 520 77 575.5 77 612.5V740H-3ZM435.477 740V367.5H671.477V442H524.977V511H649.477V586H524.977V665H676.977V740H435.477ZM750.418 740V367.5H841.418L933.918 546L970.418 628.5H972.918C968.418 589 960.918 535.5 960.918 491V367.5H1045.92V740H954.918L862.918 560.5L826.418 479H823.918C827.918 520.5 835.418 571.5 835.418 616.5V740H750.418Z" fill="white"/>
</g>
<defs>
<clipPath id="clip0_371_9">
<rect width="1043" height="1043" fill="white"/>
</clipPath>
</defs>
</svg>
